<svg width="413" height="95" viewBox="0 0 413 95" fill="none" xmlns="http://www.w3.org/2000/svg">
<mask id="path-1-outside-1_5_153" maskUnits="userSpaceOnUse" x="-0.554199" y="-0.119995" width="414" height="95" fill="black">
<rect fill="white" x="-0.554199" y="-0.119995" width="414" height="95"/>
<path d="M58.0878 33.768H57.3198C54.5038 25.192 51.5598 4.456 37.6078 4.456C28.0078 4.456 26.4718 14.952 26.4718 22.632V58.216C26.4718 77.8 25.0638 88.424 44.5198 91.112V91.88H4.3278V91.112C10.5998 91.112 13.2878 88.552 15.2078 82.664C17.1278 76.904 17.1278 64.36 17.1278 58.216C17.1278 47.336 17.6398 19.432 14.0558 10.088C12.1358 5.224 6.3758 3.432 0.999801 3.048V2.28H58.7278C56.4238 11.752 57.0638 21.736 58.0878 33.768ZM98.0508 93.16C76.8028 93.16 63.8748 68.2 63.8748 45.8C63.8748 21.864 76.6748 1 95.2348 1C116.355 1 129.283 25.832 129.283 48.36C129.283 72.296 116.483 93.16 98.0508 93.16ZM94.2108 3.56C80.0028 3.56 76.0348 22.12 76.0348 39.912C76.0348 56.296 79.7468 90.6 98.9468 90.6C113.283 90.6 117.123 72.04 117.123 54.376C117.123 37.864 113.411 3.56 94.2108 3.56ZM190.478 19.816C190.478 24.552 190.862 29.032 191.374 33.768H190.35C189.454 26.728 180.878 5.096 172.43 5.096C167.822 5.096 167.054 7.912 167.054 12.008C167.054 24.936 166.798 37.864 166.798 50.664V71.4C166.798 81.64 168.334 91.112 180.75 91.112V91.88H144.014V91.112C156.43 91.112 157.966 81.64 157.966 71.4V50.664C157.966 37.864 157.71 24.936 157.71 12.008C157.71 8.424 156.942 5.096 152.718 5.096C143.758 5.096 135.31 26.344 134.414 33.768H133.39C133.902 29.288 134.286 25.064 134.286 20.584C134.286 14.44 134.158 8.296 132.75 2.28H192.014C190.734 8.04 190.478 13.928 190.478 19.816ZM268.549 91.88H235.013V91.112C237.829 90.216 240.773 89.32 243.077 87.4C253.445 79.08 251.269 37.352 251.269 24.168C239.493 40.68 227.717 57.448 214.917 73.192C215.173 75.496 215.173 77.8 215.557 80.104C216.837 87.784 223.749 91.112 230.917 91.112V91.88H197.253V91.112C203.397 90.728 205.573 84.2 205.829 78.952C206.341 69.48 206.597 59.752 206.597 50.28C206.597 42.344 208.773 3.048 197.125 3.048V2.28H230.533V3.048C227.717 3.944 224.901 4.84 222.469 6.632C214.277 13.032 214.533 36.584 214.533 46.568V68.84C219.525 64.872 246.917 26.6 250.757 19.56C250.501 17.64 250.501 15.848 250.117 13.928C248.453 6.376 241.925 3.048 234.629 3.048V2.28H268.421V3.048C262.149 3.432 260.229 9.832 259.845 15.08C259.205 24.68 258.949 34.408 258.949 44.008C258.949 51.944 257.157 91.112 268.549 91.112V91.88ZM255.237 12.136V12.392V12.136ZM210.437 83.176V82.92V83.176ZM316.062 23.272C308.894 32.232 297.502 41.704 296.222 42.472C310.174 42.472 316.574 52.2 320.926 62.824C327.326 78.44 330.654 88.424 336.158 91.112V91.88H308.638V91.112C315.678 88.936 315.166 82.536 315.166 76.008C315.166 62.056 310.558 44.776 297.502 44.776C295.198 44.776 293.662 47.336 293.662 51.304C293.662 58.472 293.534 65.64 293.534 72.808C293.534 79.592 295.582 91.112 304.414 91.112H304.67V91.88H270.75V91.112C272.798 91.112 277.406 90.088 279.838 88.296C285.982 83.688 284.702 67.944 284.702 61.672C284.702 52.328 284.574 43.112 284.574 33.768C284.574 28.392 284.702 8.936 280.606 5.096C279.198 3.688 277.406 3.048 275.486 3.048V2.28H302.11V3.048C293.278 3.688 293.534 14.696 293.534 21.224C293.534 27.624 293.79 33.896 293.79 40.296C301.982 35.56 317.854 19.432 317.854 10.728C317.854 4.712 310.558 3.048 305.694 3.048V2.28H333.982V3.048C334.238 2.792 324.51 12.776 316.062 23.272ZM411.808 91.112V91.88H378.784V91.112C393.12 84.968 388 70.376 384.8 53.992C382.112 53.736 376.48 53.736 370.848 53.736C365.088 53.736 359.328 53.736 356 53.992C347.04 78.056 348.064 91.112 370.976 91.112V91.88H339.36C343.456 80.36 347.168 69.608 350.624 59.752C357.792 40.168 361.376 29.16 361.76 28.136C368.416 8.68 357.92 4.328 352.672 3.048V2.28H381.984C383.52 19.304 395.296 86.376 411.808 91.112ZM356.768 51.304C360.864 51.56 367.904 51.56 372.384 51.56C376.864 51.56 380.704 51.56 383.904 51.304C381.472 40.424 378.528 28.392 376.096 20.2C374.688 15.464 372.896 10.856 371.488 6.632C371.488 6.632 356.512 49.64 356.768 51.304Z"/>
</mask>
<path d="M58.0878 33.768H57.3198C54.5038 25.192 51.5598 4.456 37.6078 4.456C28.0078 4.456 26.4718 14.952 26.4718 22.632V58.216C26.4718 77.8 25.0638 88.424 44.5198 91.112V91.88H4.3278V91.112C10.5998 91.112 13.2878 88.552 15.2078 82.664C17.1278 76.904 17.1278 64.36 17.1278 58.216C17.1278 47.336 17.6398 19.432 14.0558 10.088C12.1358 5.224 6.3758 3.432 0.999801 3.048V2.28H58.7278C56.4238 11.752 57.0638 21.736 58.0878 33.768ZM98.0508 93.16C76.8028 93.16 63.8748 68.2 63.8748 45.8C63.8748 21.864 76.6748 1 95.2348 1C116.355 1 129.283 25.832 129.283 48.36C129.283 72.296 116.483 93.16 98.0508 93.16ZM94.2108 3.56C80.0028 3.56 76.0348 22.12 76.0348 39.912C76.0348 56.296 79.7468 90.6 98.9468 90.6C113.283 90.6 117.123 72.04 117.123 54.376C117.123 37.864 113.411 3.56 94.2108 3.56ZM190.478 19.816C190.478 24.552 190.862 29.032 191.374 33.768H190.35C189.454 26.728 180.878 5.096 172.43 5.096C167.822 5.096 167.054 7.912 167.054 12.008C167.054 24.936 166.798 37.864 166.798 50.664V71.4C166.798 81.64 168.334 91.112 180.75 91.112V91.88H144.014V91.112C156.43 91.112 157.966 81.64 157.966 71.4V50.664C157.966 37.864 157.71 24.936 157.71 12.008C157.71 8.424 156.942 5.096 152.718 5.096C143.758 5.096 135.31 26.344 134.414 33.768H133.39C133.902 29.288 134.286 25.064 134.286 20.584C134.286 14.44 134.158 8.296 132.75 2.28H192.014C190.734 8.04 190.478 13.928 190.478 19.816ZM268.549 91.88H235.013V91.112C237.829 90.216 240.773 89.32 243.077 87.4C253.445 79.08 251.269 37.352 251.269 24.168C239.493 40.68 227.717 57.448 214.917 73.192C215.173 75.496 215.173 77.8 215.557 80.104C216.837 87.784 223.749 91.112 230.917 91.112V91.88H197.253V91.112C203.397 90.728 205.573 84.2 205.829 78.952C206.341 69.48 206.597 59.752 206.597 50.28C206.597 42.344 208.773 3.048 197.125 3.048V2.28H230.533V3.048C227.717 3.944 224.901 4.84 222.469 6.632C214.277 13.032 214.533 36.584 214.533 46.568V68.84C219.525 64.872 246.917 26.6 250.757 19.56C250.501 17.64 250.501 15.848 250.117 13.928C248.453 6.376 241.925 3.048 234.629 3.048V2.28H268.421V3.048C262.149 3.432 260.229 9.832 259.845 15.08C259.205 24.68 258.949 34.408 258.949 44.008C258.949 51.944 257.157 91.112 268.549 91.112V91.88ZM255.237 12.136V12.392V12.136ZM210.437 83.176V82.92V83.176ZM316.062 23.272C308.894 32.232 297.502 41.704 296.222 42.472C310.174 42.472 316.574 52.2 320.926 62.824C327.326 78.44 330.654 88.424 336.158 91.112V91.88H308.638V91.112C315.678 88.936 315.166 82.536 315.166 76.008C315.166 62.056 310.558 44.776 297.502 44.776C295.198 44.776 293.662 47.336 293.662 51.304C293.662 58.472 293.534 65.64 293.534 72.808C293.534 79.592 295.582 91.112 304.414 91.112H304.67V91.88H270.75V91.112C272.798 91.112 277.406 90.088 279.838 88.296C285.982 83.688 284.702 67.944 284.702 61.672C284.702 52.328 284.574 43.112 284.574 33.768C284.574 28.392 284.702 8.936 280.606 5.096C279.198 3.688 277.406 3.048 275.486 3.048V2.28H302.11V3.048C293.278 3.688 293.534 14.696 293.534 21.224C293.534 27.624 293.79 33.896 293.79 40.296C301.982 35.56 317.854 19.432 317.854 10.728C317.854 4.712 310.558 3.048 305.694 3.048V2.28H333.982V3.048C334.238 2.792 324.51 12.776 316.062 23.272ZM411.808 91.112V91.88H378.784V91.112C393.12 84.968 388 70.376 384.8 53.992C382.112 53.736 376.48 53.736 370.848 53.736C365.088 53.736 359.328 53.736 356 53.992C347.04 78.056 348.064 91.112 370.976 91.112V91.88H339.36C343.456 80.36 347.168 69.608 350.624 59.752C357.792 40.168 361.376 29.16 361.76 28.136C368.416 8.68 357.92 4.328 352.672 3.048V2.28H381.984C383.52 19.304 395.296 86.376 411.808 91.112ZM356.768 51.304C360.864 51.56 367.904 51.56 372.384 51.56C376.864 51.56 380.704 51.56 383.904 51.304C381.472 40.424 378.528 28.392 376.096 20.2C374.688 15.464 372.896 10.856 371.488 6.632C371.488 6.632 356.512 49.64 356.768 51.304Z" fill="url(#paint0_linear_5_153)" style="mix-blend-mode:plus-lighter"/>
<path d="M58.0878 33.768V34.768H59.1765L59.0842 33.6832L58.0878 33.768ZM57.3198 33.768L56.3697 34.08L56.5956 34.768H57.3198V33.768ZM44.5198 91.112H45.5198V90.2407L44.6567 90.1214L44.5198 91.112ZM44.5198 91.88V92.88H45.5198V91.88H44.5198ZM4.3278 91.88H3.3278V92.88H4.3278V91.88ZM4.3278 91.112V90.112H3.3278V91.112H4.3278ZM15.2078 82.664L14.2591 82.3478L14.2571 82.354L15.2078 82.664ZM14.0558 10.088L14.9895 9.72986L14.986 9.72083L14.0558 10.088ZM0.999801 3.048H-0.00019908V3.97913L0.928555 4.04546L0.999801 3.048ZM0.999801 2.28V1.28H-0.00019908V2.28H0.999801ZM58.7278 2.28L59.6995 2.51635L60.0002 1.28H58.7278V2.28ZM58.0878 33.768V32.768H57.3198V33.768V34.768H58.0878V33.768ZM57.3198 33.768L58.2699 33.456C57.5736 31.3356 56.8818 28.5035 55.9761 25.2981C55.082 22.1335 53.998 18.6805 52.5508 15.4836C49.6787 9.13911 45.2046 3.456 37.6078 3.456V4.456V5.456C43.963 5.456 47.9369 10.1409 50.7288 16.3084C52.1136 19.3675 53.1656 22.7065 54.0515 25.8419C54.9258 28.9365 55.658 31.9124 56.3697 34.08L57.3198 33.768ZM37.6078 4.456V3.456C35.0134 3.456 32.9046 4.16947 31.2235 5.41176C29.5535 6.64578 28.3666 8.3559 27.5252 10.2598C25.854 14.0409 25.4718 18.7578 25.4718 22.632H26.4718H27.4718C27.4718 18.8262 27.8576 14.4551 29.3545 11.0682C30.097 9.3881 31.0941 7.99422 32.4121 7.02025C33.719 6.05453 35.4022 5.456 37.6078 5.456V4.456ZM26.4718 22.632H25.4718V58.216H26.4718H27.4718V22.632H26.4718ZM26.4718 58.216H25.4718C25.4718 63.0812 25.3835 67.4631 25.5568 71.2853C25.7304 75.1114 26.1682 78.4867 27.2658 81.3571C28.3751 84.2586 30.1521 86.6274 32.9497 88.4323C35.7218 90.2208 39.4402 91.4197 44.3829 92.1026L44.5198 91.112L44.6567 90.1214C39.8714 89.4603 36.4698 88.3232 34.0339 86.7517C31.6235 85.1966 30.1045 83.1814 29.1339 80.6429C28.1514 78.0733 27.7252 74.9526 27.5548 71.1947C27.3841 67.4329 27.4718 63.1428 27.4718 58.216H26.4718ZM44.5198 91.112H43.5198V91.88H44.5198H45.5198V91.112H44.5198ZM44.5198 91.88V90.88H4.3278V91.88V92.88H44.5198V91.88ZM4.3278 91.88H5.3278V91.112H4.3278H3.3278V91.88H4.3278ZM4.3278 91.112V92.112C7.59632 92.112 10.0927 91.4442 12.0298 89.8726C13.947 88.3171 15.1759 85.9875 16.1585 82.974L15.2078 82.664L14.2571 82.354C13.3197 85.2285 12.2446 87.1229 10.7698 88.3194C9.31491 89.4998 7.33128 90.112 4.3278 90.112V91.112ZM15.2078 82.664L16.1565 82.9802C17.1643 79.9567 17.6467 75.2556 17.8865 70.6358C18.128 65.9824 18.1278 61.2859 18.1278 58.216H17.1278H16.1278C16.1278 61.2901 16.1276 65.9376 15.8891 70.5322C15.6489 75.1604 15.1713 79.6113 14.2591 82.3478L15.2078 82.664ZM17.1278 58.216H18.1278C18.1278 52.7936 18.256 43.0686 17.9352 33.5424C17.7748 28.7777 17.5017 24.0453 17.0417 19.9095C16.5841 15.7953 15.9339 12.192 14.9895 9.72987L14.0558 10.088L13.1221 10.4461C13.9697 12.656 14.5995 16.0447 15.0539 20.1305C15.5059 24.1947 15.7768 28.8703 15.9364 33.6097C16.2556 43.0914 16.1278 52.7584 16.1278 58.216H17.1278ZM14.0558 10.088L14.986 9.72083C13.9067 6.9868 11.7597 5.16138 9.24871 3.98277C6.74755 2.80875 3.83138 2.24771 1.07105 2.05054L0.999801 3.048L0.928555 4.04546C3.54423 4.23229 6.19605 4.75925 8.39889 5.79324C10.5919 6.82262 12.2849 8.3252 13.1256 10.4552L14.0558 10.088ZM0.999801 3.048H1.9998V2.28H0.999801H-0.00019908V3.048H0.999801ZM0.999801 2.28V3.28H58.7278V2.28V1.28H0.999801V2.28ZM58.7278 2.28L57.7561 2.04365C55.4079 11.6977 56.0691 21.8408 57.0914 33.8528L58.0878 33.768L59.0842 33.6832C58.0585 21.6312 57.4398 11.8063 59.6995 2.51635L58.7278 2.28ZM98.0508 93.16V92.16C87.868 92.16 79.6005 86.1897 73.8327 77.3342C68.0612 68.4731 64.8748 56.8269 64.8748 45.8H63.8748H62.8748C62.8748 57.1731 66.1524 69.2069 72.1569 78.4258C78.1651 87.6503 86.9856 94.16 98.0508 94.16V93.16ZM63.8748 45.8H64.8748C64.8748 33.9975 68.0328 22.9995 73.4246 14.9821C78.8117 6.97163 86.3725 2 95.2348 2V1V0C85.5371 0 77.4179 5.46037 71.765 13.8659C66.1168 22.2645 62.8748 33.6665 62.8748 45.8H63.8748ZM95.2348 1V2C105.353 2 113.589 7.93806 119.341 16.7774C125.096 25.6222 128.283 37.2684 128.283 48.36H129.283H130.283C130.283 36.9236 127.006 24.8898 121.017 15.6866C115.025 6.47794 106.236 0 95.2348 0V1ZM129.283 48.36H128.283C128.283 60.1625 125.125 71.1611 119.748 79.1791C114.376 87.1909 106.847 92.16 98.0508 92.16V93.16V94.16C107.687 94.16 115.774 88.6971 121.409 80.2929C127.041 71.8949 130.283 60.4935 130.283 48.36H129.283ZM94.2108 3.56V2.56C86.5346 2.56 81.7154 7.62764 78.8674 14.69C76.0284 21.7301 75.0348 30.9688 75.0348 39.912H76.0348H77.0348C77.0348 31.0632 78.0252 22.1259 80.7222 15.438C83.4102 8.77235 87.679 4.56 94.2108 4.56V3.56ZM76.0348 39.912H75.0348C75.0348 48.1529 75.9657 60.9384 79.3365 71.6989C81.0213 77.0773 83.3382 82.0247 86.5153 85.6437C89.7142 89.2877 93.8048 91.6 98.9468 91.6V90.6V89.6C94.4888 89.6 90.9154 87.6244 88.0183 84.3243C85.0994 80.9993 82.8883 76.3467 81.2451 71.1011C77.9599 60.6136 77.0348 48.0551 77.0348 39.912H76.0348ZM98.9468 90.6V91.6C102.768 91.6 105.925 90.3559 108.482 88.1865C111.02 86.0326 112.924 83.0044 114.339 79.4849C117.162 72.4601 118.123 63.2528 118.123 54.376H117.123H116.123C116.123 63.1632 115.164 72.0679 112.483 78.7391C111.145 82.0676 109.401 84.7834 107.188 86.6615C104.993 88.5241 102.294 89.6 98.9468 89.6V90.6ZM117.123 54.376H118.123C118.123 46.0715 117.192 33.2541 113.821 22.4775C112.136 17.0911 109.82 12.1396 106.642 8.51849C103.444 4.8724 99.3528 2.56 94.2108 2.56V3.56V4.56C98.6688 4.56 102.242 6.5356 105.139 9.83752C108.058 13.1644 110.269 17.8209 111.912 23.0745C115.198 33.5779 116.123 46.1685 116.123 54.376H117.123ZM191.374 33.768V34.768H192.488L192.368 33.6605L191.374 33.768ZM190.35 33.768L189.358 33.8943L189.469 34.768H190.35V33.768ZM180.75 91.112H181.75V90.112H180.75V91.112ZM180.75 91.88V92.88H181.75V91.88H180.75ZM144.014 91.88H143.014V92.88H144.014V91.88ZM144.014 91.112V90.112H143.014V91.112H144.014ZM134.414 33.768V34.768H135.3L135.407 33.8878L134.414 33.768ZM133.39 33.768L132.396 33.6545L132.269 34.768H133.39V33.768ZM132.75 2.28V1.28H131.489L131.776 2.50788L132.75 2.28ZM192.014 2.28L192.99 2.49693L193.26 1.28H192.014V2.28ZM190.478 19.816H189.478C189.478 24.6056 189.866 29.1273 190.38 33.8755L191.374 33.768L192.368 33.6605C191.857 28.9367 191.478 24.4984 191.478 19.816H190.478ZM191.374 33.768V32.768H190.35V33.768V34.768H191.374V33.768ZM190.35 33.768L191.342 33.6417C190.874 29.963 188.452 22.6772 185.107 16.326C183.429 13.1416 181.489 10.131 179.397 7.90176C177.333 5.70199 174.964 4.096 172.43 4.096V5.096V6.096C174.119 6.096 175.991 7.19402 177.939 9.27024C179.859 11.317 181.702 14.1544 183.337 17.258C186.616 23.4828 188.93 30.533 189.358 33.8943L190.35 33.768ZM172.43 5.096V4.096C169.907 4.096 168.177 4.88461 167.168 6.48201C166.233 7.96349 166.054 9.95594 166.054 12.008H167.054H168.054C168.054 9.96407 168.259 8.50051 168.859 7.55C169.386 6.71539 170.345 6.096 172.43 6.096V5.096ZM167.054 12.008H166.054C166.054 18.4662 165.99 24.9253 165.926 31.3741C165.862 37.8212 165.798 44.2582 165.798 50.664H166.798H167.798C167.798 44.2698 167.862 37.8428 167.926 31.3939C167.99 24.9467 168.054 18.4778 168.054 12.008H167.054ZM166.798 50.664H165.798V71.4H166.798H167.798V50.664H166.798ZM166.798 71.4H165.798C165.798 76.5191 166.171 81.6758 168.234 85.5648C169.281 87.5371 170.767 89.193 172.847 90.3466C174.919 91.4958 177.52 92.112 180.75 92.112V91.112V90.112C177.772 90.112 175.524 89.5442 173.817 88.5975C172.117 87.655 170.89 86.3029 170.001 84.6272C168.193 81.2202 167.798 76.5209 167.798 71.4H166.798ZM180.75 91.112H179.75V91.88H180.75H181.75V91.112H180.75ZM180.75 91.88V90.88H144.014V91.88V92.88H180.75V91.88ZM144.014 91.88H145.014V91.112H144.014H143.014V91.88H144.014ZM144.014 91.112V92.112C147.244 92.112 149.844 91.4958 151.917 90.3466C153.997 89.193 155.482 87.5371 156.529 85.5648C158.593 81.6758 158.966 76.5191 158.966 71.4H157.966H156.966C156.966 76.5209 156.571 81.2202 154.762 84.6272C153.873 86.3029 152.647 87.655 150.947 88.5975C149.239 89.5442 146.992 90.112 144.014 90.112V91.112ZM157.966 71.4H158.966V50.664H157.966H156.966V71.4H157.966ZM157.966 50.664H158.966C158.966 44.2582 158.902 37.8212 158.838 31.3741C158.774 24.9253 158.71 18.4662 158.71 12.008H157.71H156.71C156.71 18.4778 156.774 24.9467 156.838 31.3939C156.902 37.8428 156.966 44.2698 156.966 50.664H157.966ZM157.71 12.008H158.71C158.71 10.187 158.523 8.23578 157.669 6.71774C157.23 5.93708 156.612 5.26564 155.763 4.79673C154.92 4.33054 153.906 4.096 152.718 4.096V5.096V6.096C153.642 6.096 154.308 6.27747 154.796 6.54727C155.28 6.81436 155.645 7.19892 155.926 7.69827C156.512 8.74023 156.71 10.245 156.71 12.008H157.71ZM152.718 5.096V4.096C150.08 4.096 147.628 5.65034 145.49 7.83205C143.332 10.0335 141.356 13.0117 139.66 16.1757C136.278 22.4875 133.888 29.7764 133.421 33.6482L134.414 33.768L135.407 33.8878C135.835 30.3356 138.118 23.2885 141.423 17.1203C143.072 14.0443 144.944 11.2465 146.918 9.23196C148.912 7.19766 150.876 6.096 152.718 6.096V5.096ZM134.414 33.768V32.768H133.39V33.768V34.768H134.414V33.768ZM133.39 33.768L134.383 33.8815C134.897 29.3889 135.286 25.1208 135.286 20.584H134.286H133.286C133.286 25.0072 132.907 29.1871 132.396 33.6545L133.39 33.768ZM134.286 20.584H135.286C135.286 14.4392 135.16 8.19171 133.723 2.05212L132.75 2.28L131.776 2.50788C133.155 8.40028 133.286 14.4408 133.286 20.584H134.286ZM132.75 2.28V3.28H192.014V2.28V1.28H132.75V2.28ZM192.014 2.28L191.038 2.06306C189.734 7.93098 189.478 13.9059 189.478 19.816H190.478H191.478C191.478 13.9501 191.734 8.14902 192.99 2.49693L192.014 2.28ZM268.549 91.88V92.88H269.549V91.88H268.549ZM235.013 91.88H234.013V92.88H235.013V91.88ZM235.013 91.112L234.71 90.1591L234.013 90.3808V91.112H235.013ZM243.077 87.4L242.451 86.6201L242.444 86.6259L242.437 86.6318L243.077 87.4ZM251.269 24.168H252.269V21.0436L250.455 23.5874L251.269 24.168ZM214.917 73.192L214.141 72.5612L213.877 72.8862L213.923 73.3024L214.917 73.192ZM215.557 80.104L214.57 80.2684V80.2684L215.557 80.104ZM230.917 91.112H231.917V90.112H230.917V91.112ZM230.917 91.88V92.88H231.917V91.88H230.917ZM197.253 91.88H196.253V92.88H197.253V91.88ZM197.253 91.112L197.19 90.114L196.253 90.1726V91.112H197.253ZM205.829 78.952L204.83 78.898L204.83 78.9033L205.829 78.952ZM197.125 3.048H196.125V4.048H197.125V3.048ZM197.125 2.28V1.28H196.125V2.28H197.125ZM230.533 2.28H231.533V1.28H230.533V2.28ZM230.533 3.048L230.836 4.00093L231.533 3.77922V3.048H230.533ZM222.469 6.632L221.876 5.82695L221.864 5.8353L221.853 5.84398L222.469 6.632ZM214.533 68.84H213.533V70.9123L215.155 69.6228L214.533 68.84ZM250.757 19.56L251.635 20.0389L251.791 19.7519L251.748 19.4278L250.757 19.56ZM250.117 13.928L251.097 13.7319L251.095 13.7223L251.093 13.7128L250.117 13.928ZM234.629 3.048H233.629V4.048H234.629V3.048ZM234.629 2.28V1.28H233.629V2.28H234.629ZM268.421 2.28H269.421V1.28H268.421V2.28ZM268.421 3.048L268.482 4.04613L269.421 3.98866V3.048H268.421ZM259.845 15.08L258.847 15.007L258.847 15.0135L259.845 15.08ZM268.549 91.112H269.549V90.112H268.549V91.112ZM268.549 91.88V90.88H235.013V91.88V92.88H268.549V91.88ZM235.013 91.88H236.013V91.112H235.013H234.013V91.88H235.013ZM235.013 91.112L235.316 92.0649C238.083 91.1845 241.234 90.2377 243.717 88.1682L243.077 87.4L242.437 86.6318C240.312 88.4023 237.574 89.2476 234.71 90.1591L235.013 91.112ZM243.077 87.4L243.703 88.1799C246.577 85.8734 248.444 81.4062 249.704 76.0947C250.977 70.7239 251.682 64.2493 252.059 57.6652C252.813 44.5083 252.269 30.7016 252.269 24.168H251.269H250.269C250.269 30.8184 250.812 44.4677 250.062 57.5508C249.688 64.0867 248.992 70.4281 247.758 75.6333C246.509 80.8978 244.761 84.7666 242.451 86.6201L243.077 87.4ZM251.269 24.168L250.455 23.5874C238.671 40.11 226.916 56.8474 214.141 72.5612L214.917 73.192L215.693 73.8228C228.517 58.0486 240.315 41.25 252.083 24.7486L251.269 24.168ZM214.917 73.192L213.923 73.3024C214.048 74.4274 214.11 75.5466 214.191 76.7173C214.272 77.8747 214.37 79.0666 214.57 80.2684L215.557 80.104L216.543 79.9396C216.359 78.8374 216.266 77.7253 216.186 76.5787C216.108 75.4454 216.042 74.2606 215.911 73.0816L214.917 73.192ZM215.557 80.104L214.57 80.2684C215.965 88.6382 223.506 92.112 230.917 92.112V91.112V90.112C223.992 90.112 217.708 86.9298 216.543 79.9396L215.557 80.104ZM230.917 91.112H229.917V91.88H230.917H231.917V91.112H230.917ZM230.917 91.88V90.88H197.253V91.88V92.88H230.917V91.88ZM197.253 91.88H198.253V91.112H197.253H196.253V91.88H197.253ZM197.253 91.112L197.315 92.1101C200.799 91.8923 203.147 89.9077 204.616 87.3547C206.065 84.8352 206.695 81.7197 206.828 79.0007L205.829 78.952L204.83 78.9033C204.707 81.4323 204.12 84.2048 202.882 86.3573C201.663 88.4763 199.851 89.9477 197.19 90.114L197.253 91.112ZM205.829 78.952L206.827 79.006C207.34 69.5155 207.597 59.7695 207.597 50.28H206.597H205.597C205.597 59.7345 205.341 69.4445 204.83 78.898L205.829 78.952ZM206.597 50.28H207.597C207.597 46.3807 208.142 34.4756 207.225 23.604C206.767 18.1714 205.938 12.8999 204.455 8.95959C203.001 5.09998 200.724 2.048 197.125 2.048V3.048V4.048C199.349 4.048 201.168 5.90803 202.583 9.66442C203.967 13.3401 204.778 18.3886 205.232 23.772C206.14 34.5324 205.597 46.2433 205.597 50.28H206.597ZM197.125 3.048H198.125V2.28H197.125H196.125V3.048H197.125ZM197.125 2.28V3.28H230.533V2.28V1.28H197.125V2.28ZM230.533 2.28H229.533V3.048H230.533H231.533V2.28H230.533ZM230.533 3.048L230.23 2.09508C227.439 2.98294 224.462 3.92125 221.876 5.82695L222.469 6.632L223.062 7.43706C225.34 5.75876 227.994 4.90506 230.836 4.00093L230.533 3.048ZM222.469 6.632L221.853 5.84398C219.583 7.61761 217.981 10.503 216.828 13.8414C215.667 17.1986 214.92 21.132 214.436 25.1359C213.467 33.143 213.533 41.5903 213.533 46.568H214.533H215.533C215.533 41.5617 215.47 33.241 216.422 25.3761C216.897 21.444 217.622 17.6654 218.718 14.4946C219.82 11.305 221.259 8.84639 223.084 7.42003L222.469 6.632ZM214.533 46.568H213.533V68.84H214.533H215.533V46.568H214.533ZM214.533 68.84L215.155 69.6228C215.864 69.0594 216.895 67.957 218.124 66.5228C219.372 65.0669 220.877 63.206 222.546 61.0722C225.886 56.8035 229.906 51.4172 233.886 45.9398C241.825 35.0139 249.677 23.628 251.635 20.0389L250.757 19.56L249.879 19.0812C247.997 22.532 240.233 33.8021 232.268 44.7642C228.296 50.2308 224.291 55.5965 220.971 59.8398C219.311 61.962 217.826 63.7971 216.606 65.2212C215.367 66.667 214.45 67.6286 213.911 68.0572L214.533 68.84ZM250.757 19.56L251.748 19.4278C251.624 18.4983 251.563 17.6081 251.481 16.6581C251.4 15.7216 251.301 14.7484 251.097 13.7319L250.117 13.928L249.136 14.1241C249.317 15.0276 249.409 15.9104 249.488 16.8299C249.567 17.7359 249.634 18.7017 249.766 19.6922L250.757 19.56ZM250.117 13.928L251.093 13.7128C249.293 5.54046 242.205 2.048 234.629 2.048V3.048V4.048C241.644 4.048 247.613 7.21154 249.14 14.1432L250.117 13.928ZM234.629 3.048H235.629V2.28H234.629H233.629V3.048H234.629ZM234.629 2.28V3.28H268.421V2.28V1.28H234.629V2.28ZM268.421 2.28H267.421V3.048H268.421H269.421V2.28H268.421ZM268.421 3.048L268.36 2.04987C264.82 2.2666 262.499 4.21129 261.056 6.74516C259.638 9.23418 259.044 12.3156 258.847 15.007L259.845 15.08L260.842 15.153C261.029 12.5964 261.587 9.85382 262.794 7.73484C263.975 5.66071 265.75 4.2134 268.482 4.04613L268.421 3.048ZM259.845 15.08L258.847 15.0135C258.205 24.64 257.949 34.3907 257.949 44.008H258.949H259.949C259.949 34.4253 260.204 24.72 260.843 15.1465L259.845 15.08ZM258.949 44.008H257.949C257.949 47.9213 257.499 59.7822 258.481 70.6261C258.971 76.0425 259.824 81.2957 261.307 85.2214C262.757 89.058 265.008 92.112 268.549 92.112V91.112V90.112C266.394 90.112 264.597 88.27 263.178 84.5146C261.793 80.8483 260.959 75.8135 260.473 70.4459C259.502 59.7218 259.949 48.0307 259.949 44.008H258.949ZM268.549 91.112H267.549V91.88H268.549H269.549V91.112H268.549ZM255.237 12.136H254.237V12.392H255.237H256.237V12.136H255.237ZM255.237 12.392H256.237V12.136H255.237H254.237V12.392H255.237ZM210.437 83.176H211.437V82.92H210.437H209.437V83.176H210.437ZM210.437 82.92H209.437V83.176H210.437H211.437V82.92H210.437ZM316.062 23.272L315.283 22.645L315.281 22.6473L316.062 23.272ZM296.222 42.472L295.707 41.6145L292.611 43.472H296.222V42.472ZM320.926 62.824L320 63.2031L320 63.2032L320.926 62.824ZM336.158 91.112H337.158V90.4875L336.597 90.2134L336.158 91.112ZM336.158 91.88V92.88H337.158V91.88H336.158ZM308.638 91.88H307.638V92.88H308.638V91.88ZM308.638 91.112L308.342 90.1566L307.638 90.3744V91.112H308.638ZM304.67 91.112H305.67V90.112H304.67V91.112ZM304.67 91.88V92.88H305.67V91.88H304.67ZM270.75 91.88H269.75V92.88H270.75V91.88ZM270.75 91.112V90.112H269.75V91.112H270.75ZM279.838 88.296L280.431 89.1011L280.438 89.096L279.838 88.296ZM280.606 5.096L279.899 5.80311L279.91 5.81451L279.922 5.82554L280.606 5.096ZM275.486 3.048H274.486V4.048H275.486V3.048ZM275.486 2.28V1.28H274.486V2.28H275.486ZM302.11 2.28H303.11V1.28H302.11V2.28ZM302.11 3.048L302.182 4.04539L303.11 3.97816V3.048H302.11ZM293.79 40.296H292.79V42.0292L294.29 41.1617L293.79 40.296ZM305.694 3.048H304.694V4.048H305.694V3.048ZM305.694 2.28V1.28H304.694V2.28H305.694ZM333.982 2.28H334.982V1.28H333.982V2.28ZM333.982 3.048H332.982V5.46227L334.689 3.7551L333.982 3.048ZM316.062 23.272L315.281 22.6473C311.743 27.07 307.145 31.6387 303.258 35.2074C301.317 36.989 299.561 38.5147 298.213 39.6405C296.833 40.7931 295.946 41.4712 295.707 41.6145L296.222 42.472L296.736 43.3295C297.137 43.0888 298.155 42.295 299.495 41.1755C300.867 40.0293 302.647 38.483 304.61 36.6807C308.531 33.0813 313.213 28.434 316.843 23.8967L316.062 23.272ZM296.222 42.472V43.472C302.932 43.472 307.772 45.7985 311.479 49.3828C315.217 52.9986 317.842 57.9339 320 63.2031L320.926 62.824L321.851 62.4449C319.658 57.0901 316.906 51.8494 312.869 47.9452C308.799 44.0095 303.464 41.472 296.222 41.472V42.472ZM320.926 62.824L320 63.2032C323.184 70.9707 325.64 77.4308 327.978 82.2523C330.298 87.0362 332.63 90.502 335.719 92.0106L336.158 91.112L336.597 90.2134C334.182 89.034 332.098 86.1638 329.778 81.3797C327.476 76.6332 325.068 70.2933 321.851 62.4448L320.926 62.824ZM336.158 91.112H335.158V91.88H336.158H337.158V91.112H336.158ZM336.158 91.88V90.88H308.638V91.88V92.88H336.158V91.88ZM308.638 91.88H309.638V91.112H308.638H307.638V91.88H308.638ZM308.638 91.112L308.933 92.0674C310.834 91.48 312.28 90.5884 313.358 89.4348C314.434 88.2835 315.096 86.9213 315.505 85.4614C316.304 82.6048 316.166 79.1879 316.166 76.008H315.166H314.166C314.166 79.3562 314.284 82.4032 313.579 84.9226C313.235 86.1507 312.705 87.2045 311.897 88.0692C311.091 88.9316 309.962 89.656 308.342 90.1566L308.638 91.112ZM315.166 76.008H316.166C316.166 68.9467 315.003 60.9822 312.139 54.7428C309.271 48.4967 304.581 43.776 297.502 43.776V44.776V45.776C303.479 45.776 307.621 49.6954 310.321 55.5772C313.024 61.4658 314.166 69.1173 314.166 76.008H315.166ZM297.502 44.776V43.776C295.916 43.776 294.664 44.6784 293.857 46.0429C293.065 47.3824 292.662 49.2086 292.662 51.304H293.662H294.662C294.662 49.4314 295.027 47.9936 295.578 47.0611C296.115 46.1536 296.783 45.776 297.502 45.776V44.776ZM293.662 51.304H292.662C292.662 54.8828 292.63 58.4623 292.598 62.0471C292.566 65.6303 292.534 69.2188 292.534 72.808H293.534H294.534C294.534 69.2292 294.566 65.6497 294.598 62.0649C294.63 58.4817 294.662 54.8932 294.662 51.304H293.662ZM293.534 72.808H292.534C292.534 76.2711 293.053 80.9994 294.744 84.9017C296.443 88.821 299.439 92.112 304.414 92.112V91.112V90.112C300.557 90.112 298.112 87.643 296.579 84.1063C295.039 80.5526 294.534 76.1289 294.534 72.808H293.534ZM304.414 91.112V92.112H304.67V91.112V90.112H304.414V91.112ZM304.67 91.112H303.67V91.88H304.67H305.67V91.112H304.67ZM304.67 91.88V90.88H270.75V91.88V92.88H304.67V91.88ZM270.75 91.88H271.75V91.112H270.75H269.75V91.88H270.75ZM270.75 91.112V92.112C271.896 92.112 273.656 91.8334 275.42 91.3389C277.18 90.8455 279.073 90.1015 280.431 89.1011L279.838 88.296L279.245 87.491C278.17 88.2826 276.544 88.9465 274.88 89.4131C273.22 89.8786 271.651 90.112 270.75 90.112V91.112ZM279.838 88.296L280.438 89.096C282.202 87.7728 283.362 85.7093 284.138 83.3915C284.917 81.0637 285.343 78.3799 285.57 75.6923C286.023 70.3417 285.702 64.7238 285.702 61.672H284.702H283.702C283.702 64.8922 284.021 70.2823 283.577 75.5237C283.357 78.1321 282.95 80.6403 282.242 82.7565C281.53 84.8828 280.546 86.5152 279.238 87.496L279.838 88.296ZM284.702 61.672H285.702C285.702 56.996 285.67 52.3526 285.638 47.7131C285.606 43.0725 285.574 38.436 285.574 33.768H284.574H283.574C283.574 38.444 283.606 43.0875 283.638 47.7269C283.67 52.3675 283.702 57.004 283.702 61.672H284.702ZM284.574 33.768H285.574C285.574 31.0871 285.606 24.8389 285.123 18.7765C284.881 15.7474 284.508 12.7322 283.928 10.2155C283.638 8.95695 283.291 7.79977 282.872 6.81737C282.457 5.84576 281.944 4.98027 281.29 4.36646L280.606 5.096L279.922 5.82554C280.291 6.17173 280.67 6.75424 281.033 7.60264C281.39 8.44023 281.705 9.47505 281.979 10.6645C282.527 13.0438 282.891 15.9486 283.129 18.9355C283.605 24.9051 283.574 31.0729 283.574 33.768H284.574ZM280.606 5.096L281.313 4.38889C279.696 2.77169 277.639 2.048 275.486 2.048V3.048V4.048C277.173 4.048 278.7 4.60432 279.899 5.80311L280.606 5.096ZM275.486 3.048H276.486V2.28H275.486H274.486V3.048H275.486ZM275.486 2.28V3.28H302.11V2.28V1.28H275.486V2.28ZM302.11 2.28H301.11V3.048H302.11H303.11V2.28H302.11ZM302.11 3.048L302.038 2.05062C299.603 2.22706 297.732 3.13034 296.335 4.53464C294.957 5.91946 294.096 7.73321 293.548 9.65384C292.462 13.4653 292.534 18.0073 292.534 21.224H293.534H294.534C294.534 17.9127 294.478 13.6867 295.471 10.2022C295.964 8.47479 296.695 7.00854 297.753 5.94537C298.791 4.90166 300.201 4.18895 302.182 4.04539L302.11 3.048ZM293.534 21.224H292.534C292.534 24.4358 292.598 27.6138 292.662 30.7802C292.726 33.9498 292.79 37.1078 292.79 40.296H293.79H294.79C294.79 37.0842 294.726 33.9062 294.662 30.7398C294.598 27.5702 294.534 24.4122 294.534 21.224H293.534ZM293.79 40.296L294.29 41.1617C298.514 38.7197 304.613 33.4178 309.647 27.6581C312.17 24.7706 314.454 21.7367 316.113 18.8525C317.756 15.9951 318.854 13.1691 318.854 10.728H317.854H316.854C316.854 12.6389 315.968 15.0929 314.379 17.8555C312.806 20.5913 310.609 23.5174 308.141 26.3419C303.191 32.0062 297.257 37.1364 293.289 39.4303L293.79 40.296ZM317.854 10.728H318.854C318.854 7.20758 316.677 5.00139 314.031 3.73057C311.416 2.47459 308.211 2.048 305.694 2.048V3.048V4.048C308.04 4.048 310.916 4.45341 313.165 5.53343C315.383 6.59862 316.854 8.23242 316.854 10.728H317.854ZM305.694 3.048H306.694V2.28H305.694H304.694V3.048H305.694ZM305.694 2.28V3.28H333.982V2.28V1.28H305.694V2.28ZM333.982 2.28H332.982V3.048H333.982H334.982V2.28H333.982ZM333.982 3.048L334.689 3.7551C334.691 3.75261 334.686 3.75811 334.678 3.76547C334.675 3.7682 334.667 3.77574 334.662 3.78038C334.652 3.78955 334.611 3.82414 334.58 3.84839C334.046 4.0414 333.014 3.273 333.157 2.4856C333.183 2.44833 333.22 2.40083 333.23 2.3896C333.25 2.36677 333.27 2.34572 333.253 2.36371C333.244 2.3735 333.225 2.3931 333.195 2.42455C333.136 2.48597 333.04 2.58575 332.91 2.7208C332.651 2.99101 332.258 3.40252 331.752 3.93626C330.741 5.00364 329.281 6.55989 327.548 8.45284C324.085 12.2371 319.525 17.3742 315.283 22.645L316.062 23.272L316.841 23.899C321.046 18.6738 325.575 13.571 329.023 9.80316C330.747 7.92011 332.199 6.37237 333.204 5.31174C333.706 4.78149 334.097 4.37299 334.354 4.1052C334.482 3.97125 334.577 3.87254 334.636 3.81071C334.665 3.78054 334.688 3.75732 334.701 3.74371C334.704 3.74024 334.708 3.73615 334.712 3.73216C334.713 3.73024 334.716 3.72714 334.72 3.72353C334.72 3.72278 334.731 3.71151 334.743 3.69733C334.753 3.68586 334.79 3.63821 334.817 3.60084C334.96 2.81335 333.927 2.04495 333.394 2.23802C333.362 2.26234 333.321 2.29708 333.311 2.30647C333.305 2.31133 333.297 2.31918 333.294 2.32227C333.284 2.33115 333.276 2.3394 333.275 2.3409L333.982 3.048ZM411.808 91.112H412.808V90.3585L412.083 90.1508L411.808 91.112ZM411.808 91.88V92.88H412.808V91.88H411.808ZM378.784 91.88H377.784V92.88H378.784V91.88ZM378.784 91.112L378.39 90.1929L377.784 90.4526V91.112H378.784ZM384.8 53.992L385.781 53.8003L385.638 53.0673L384.895 52.9965L384.8 53.992ZM356 53.992L355.923 52.9949L355.286 53.044L355.063 53.6431L356 53.992ZM370.976 91.112H371.976V90.112H370.976V91.112ZM370.976 91.88V92.88H371.976V91.88H370.976ZM339.36 91.88L338.418 91.545L337.943 92.88H339.36V91.88ZM350.624 59.752L349.685 59.4083L349.68 59.4211L350.624 59.752ZM361.76 28.136L362.696 28.4871L362.701 28.4735L362.706 28.4597L361.76 28.136ZM352.672 3.048H351.672V3.83342L352.435 4.01952L352.672 3.048ZM352.672 2.28V1.28H351.672V2.28H352.672ZM381.984 2.28L382.98 2.19014L382.898 1.28H381.984V2.28ZM356.768 51.304L355.779 51.4561L355.902 52.2518L356.705 52.3021L356.768 51.304ZM383.904 51.304L383.984 52.3008L385.131 52.209L384.88 51.0859L383.904 51.304ZM376.096 20.2L377.054 19.9154L377.054 19.915L376.096 20.2ZM371.488 6.632L372.436 6.31577L371.508 3.53173L370.543 6.30315L371.488 6.632ZM411.808 91.112H410.808V91.88H411.808H412.808V91.112H411.808ZM411.808 91.88V90.88H378.784V91.88V92.88H411.808V91.88ZM378.784 91.88H379.784V91.112H378.784H377.784V91.88H378.784ZM378.784 91.112L379.178 92.0312C382.922 90.4265 385.469 88.2349 387.08 85.5368C388.684 82.851 389.31 79.7503 389.368 76.4093C389.425 73.0742 388.918 69.4425 388.209 65.6558C387.509 61.9233 386.565 57.8105 385.781 53.8003L384.8 53.992L383.818 54.1837C384.635 58.3655 385.53 62.2207 386.243 66.0242C386.945 69.7735 387.422 73.2458 387.368 76.3747C387.314 79.4977 386.731 82.221 385.363 84.5112C384.003 86.7892 381.814 88.7255 378.39 90.1929L378.784 91.112ZM384.8 53.992L384.895 52.9965C382.146 52.7347 376.449 52.736 370.848 52.736V53.736V54.736C376.511 54.736 382.078 54.7373 384.705 54.9875L384.8 53.992ZM370.848 53.736V52.736C365.109 52.736 359.299 52.7352 355.923 52.9949L356 53.992L356.077 54.9891C359.356 54.7368 365.067 54.736 370.848 54.736V53.736ZM356 53.992L355.063 53.6431C352.813 59.6853 351.174 65.0779 350.353 69.7717C349.533 74.4564 349.514 78.5264 350.583 81.8798C351.666 85.2767 353.847 87.8706 357.26 89.5892C360.634 91.2879 365.17 92.112 370.976 92.112V91.112V90.112C365.325 90.112 361.141 89.3041 358.159 87.8028C355.217 86.3214 353.405 84.1473 352.489 81.2722C351.558 78.3536 351.53 74.6476 352.323 70.1163C353.114 65.5941 354.707 60.3307 356.937 54.3409L356 53.992ZM370.976 91.112H369.976V91.88H370.976H371.976V91.112H370.976ZM370.976 91.88V90.88H339.36V91.88V92.88H370.976V91.88ZM339.36 91.88L340.302 92.215C344.399 80.6927 348.114 69.9326 351.567 60.0829L350.624 59.752L349.68 59.4211C346.222 69.2834 342.513 80.0273 338.418 91.545L339.36 91.88ZM350.624 59.752L351.563 60.0957C355.149 50.2974 357.839 42.6436 359.681 37.3104C361.532 31.9493 362.51 28.9844 362.696 28.4871L361.76 28.136L360.823 27.7849C360.626 28.3116 359.619 31.3627 357.791 36.6576C355.952 41.9804 353.266 49.6226 349.685 59.4083L350.624 59.752ZM361.76 28.136L362.706 28.4597C366.089 18.5715 365.198 12.2598 362.512 8.22214C359.852 4.22267 355.607 2.7345 352.909 2.07648L352.672 3.048L352.435 4.01952C354.985 4.6415 358.612 5.96933 360.847 9.32986C363.057 12.6522 364.087 18.2445 360.814 27.8123L361.76 28.136ZM352.672 3.048H353.672V2.28H352.672H351.672V3.048H352.672ZM352.672 2.28V3.28H381.984V2.28V1.28H352.672V2.28ZM381.984 2.28L380.988 2.36986C381.761 10.9424 385.1 32.0226 390.314 51.5618C392.92 61.3301 396.007 70.7581 399.496 78.0592C401.239 81.7088 403.1 84.8621 405.076 87.2681C407.042 89.663 409.191 91.4018 411.532 92.0732L411.808 91.112L412.083 90.1508C410.297 89.6382 408.466 88.245 406.621 85.9989C404.786 83.7639 403.006 80.7672 401.3 77.1969C397.889 70.0579 394.84 60.7659 392.246 51.0462C387.06 31.6094 383.742 10.6416 382.98 2.19014L381.984 2.28ZM356.768 51.304L356.705 52.3021C360.84 52.5605 367.918 52.56 372.384 52.56V51.56V50.56C367.89 50.56 360.887 50.5595 356.83 50.306L356.768 51.304ZM372.384 51.56V52.56C376.85 52.56 380.735 52.5607 383.984 52.3008L383.904 51.304L383.824 50.3072C380.673 50.5593 376.877 50.56 372.384 50.56V51.56ZM383.904 51.304L384.88 51.0859C382.446 40.1984 379.496 28.1403 377.054 19.9154L376.096 20.2L375.137 20.4846C377.559 28.6438 380.498 40.6496 382.928 51.5222L383.904 51.304ZM376.096 20.2L377.054 19.915C375.643 15.1691 373.82 10.4656 372.436 6.31577L371.488 6.632L370.539 6.94823C371.972 11.2464 373.732 15.7589 375.137 20.485L376.096 20.2ZM371.488 6.632C370.543 6.30315 370.543 6.30333 370.543 6.30367C370.543 6.30399 370.543 6.30449 370.543 6.30515C370.542 6.30647 370.542 6.30844 370.541 6.31106C370.539 6.31628 370.536 6.3241 370.533 6.33447C370.525 6.35519 370.515 6.38609 370.5 6.42685C370.472 6.50836 370.43 6.62931 370.375 6.78711C370.265 7.10271 370.105 7.56573 369.9 8.15557C369.491 9.33526 368.907 11.0223 368.206 13.0519C366.806 17.1109 364.941 22.5408 363.085 28.0232C361.228 33.5046 359.378 39.0427 358.008 43.3166C357.323 45.4524 356.755 47.2801 356.366 48.6297C356.172 49.303 356.019 49.8688 355.918 50.2991C355.867 50.513 355.826 50.7073 355.8 50.8715C355.781 50.9916 355.745 51.2293 355.779 51.4561L356.768 51.304L357.756 51.1519C357.775 51.2747 357.753 51.3276 357.775 51.1874C357.79 51.0912 357.819 50.9496 357.864 50.7571C357.954 50.3746 358.097 49.8457 358.288 49.1838C358.669 47.8629 359.229 46.0576 359.912 43.9274C361.277 39.6693 363.123 34.1435 364.979 28.6648C366.834 23.1872 368.697 17.7611 370.097 13.7041C370.797 11.6757 371.381 9.98975 371.79 8.81094C371.994 8.22153 372.155 7.75893 372.264 7.44371C372.319 7.28611 372.361 7.16535 372.389 7.08401C372.403 7.04334 372.414 7.01254 372.421 6.9919C372.425 6.98158 372.428 6.97381 372.429 6.96862C372.43 6.96603 372.431 6.96408 372.432 6.96278C372.432 6.96214 372.432 6.96165 372.432 6.96133C372.432 6.96101 372.432 6.96085 371.488 6.632Z" fill="white" fill-opacity="0.35" mask="url(#path-1-outside-1_5_153)"/>
<defs>
<linearGradient id="paint0_linear_5_153" x1="19.4359" y1="-3.11999" x2="400.855" y2="26.0167" gradientUnits="userSpaceOnUse">
<stop offset="0.110577" stop-color="#BC3434"/>
<stop offset="1" stop-color="#56184A"/>
</linearGradient>
</defs>
</svg>
